# xmcd
#
# Track frame offsets:
#	150
#	10275
#	55882
#	67652
#	100987
#	122915
#	138642
#	171421
#	187819
#	209021
#	223724
#	252450
#	257186
#	272428
#	297864
#
# Disc length: 3999 seconds
# Revision: 0
# Processed by: cddbd v1.5.2PL0 Copyright (c) Steve Scherf et al.
# Submitted via: dBpowerAMP V12.0
#
DISCID=eb0f9d0f
DTITLE=Andrew Liles - The Flesh Creeping Gonzoid and Other Imaginary Creatures-Volume 6
DYEAR=2011
DGENRE=
TTITLE0=Sunshine Sea And The Sandman
TTITLE1=Popular Misconceptions About Communicable Diseases
TTITLE2=The Slider
TTITLE3=Run Logan
TTITLE4=Alternate Unworlds Apart 3
TTITLE5=Art In North America - A Tonic For New York City
TTITLE6=Beneath The Planet Dimensional
TTITLE7=DPF 2
TTITLE8=Is There Anybody There? (Temporal Lobe Mix)
TTITLE9=Run Silently
TTITLE10=Self Love As Self Harm
TTITLE11=Soylent
TTITLE12=A Delicacy A Nuance
TTITLE13=Alternate Unworlds Apart 2
TTITLE14=DPF 3
EXTD=
EXTT0=
EXTT1=
EXTT2=
EXTT3=
EXTT4=
EXTT5=
EXTT6=
EXTT7=
EXTT8=
EXTT9=
EXTT10=
EXTT11=
EXTT12=
EXTT13=
EXTT14=
PLAYORDER=
